<?xml version="1.0" encoding="iso-8859-1"?>
<!-- Generator: Adobe Illustrator 24.2.3, SVG Export Plug-In . SVG Version: 6.00 Build 0)  -->
<svg version="1.1" id="Layer_1" xmlns="http://www.w3.org/2000/svg" xmlns:xlink="http://www.w3.org/1999/xlink" x="0px" y="0px"
	 viewBox="0 0 500 500" style="enable-background:new 0 0 500 500;" xml:space="preserve">
<g>
	<path style="fill:#191919;" d="M373.533,420.885h-29.996v-11.309h5.591c3.596,0,6.511-2.915,6.511-6.512v-2.718
		c0-3.596-2.915-6.511-6.511-6.511h-16.54c-3.596,0-6.511,2.915-6.511,6.511v2.718c0,3.596,2.915,6.512,6.511,6.512h6.82v11.309
		h-41.943v-11.309h6.897c3.596,0,6.511-2.915,6.511-6.512v-2.718c0-3.596-2.915-6.511-6.511-6.511h-16.54
		c-3.596,0-6.511,2.915-6.511,6.511v2.718c0,3.596,2.915,6.512,6.511,6.512h5.514v11.309h-41.942v-11.309h8.202
		c3.596,0,6.511-2.915,6.511-6.512v-2.718c0-3.596-2.915-6.511-6.511-6.511h-16.539c-3.596,0-6.511,2.915-6.511,6.511v2.718
		c0,3.596,2.915,6.512,6.511,6.512h4.209v11.309h-39.639v-11.309h7.204c3.596,0,6.511-2.915,6.511-6.512v-2.718
		c0-3.596-2.915-6.511-6.511-6.511h-16.54c-3.596,0-6.511,2.915-6.511,6.511v2.718c0,3.596,2.915,6.512,6.511,6.512h5.208v11.309
		h-39.64v-11.309h6.206c3.596,0,6.511-2.915,6.511-6.512v-2.718c0-3.596-2.915-6.511-6.511-6.511h-16.539
		c-3.596,0-6.511,2.915-6.511,6.511v2.718c0,3.596,2.915,6.512,6.511,6.512h6.205v11.459c-4.99,0.726-8.835,4.98-8.835,10.171
		c0,5.7,4.621,10.321,10.321,10.321h212.318c5.7,0,10.321-4.621,10.321-10.321C383.854,425.506,379.232,420.885,373.533,420.885z"/>
	<path style="fill:#191919;" d="M393.894,393.834h-16.54c-3.596,0-6.511,2.915-6.511,6.511v2.718c0,3.596,2.915,6.512,6.511,6.512
		h5.821v13.437h4.129v-13.437h6.59c3.596,0,6.511-2.915,6.511-6.512v-2.718C400.405,396.749,397.49,393.834,393.894,393.834z"/>
	<path style="fill:#191919;" d="M364.684,381.845h6.973v8.918h4.129v-8.918h5.438c3.596,0,6.511-2.915,6.511-6.511v-2.718
		c0-3.596-2.915-6.511-6.511-6.511h-16.54c-3.596,0-6.511,2.915-6.511,6.511v2.718C358.173,378.93,361.088,381.845,364.684,381.845z
		"/>
	<path style="fill:#191919;" d="M319.918,381.845h7.972v8.918h4.128v-8.918h4.439c3.596,0,6.512-2.915,6.512-6.511v-2.718
		c0-3.596-2.915-6.511-6.512-6.511h-16.539c-3.596,0-6.511,2.915-6.511,6.511v2.718C313.407,378.93,316.322,381.845,319.918,381.845
		z"/>
	<path style="fill:#191919;" d="M275.152,381.845h6.666v8.918h4.129v-8.918h5.745c3.596,0,6.511-2.915,6.511-6.511v-2.718
		c0-3.596-2.915-6.511-6.511-6.511h-16.54c-3.596,0-6.511,2.915-6.511,6.511v2.718C268.641,378.93,271.556,381.845,275.152,381.845z
		"/>
	<path style="fill:#191919;" d="M230.386,381.845h5.361v8.918h4.128v-8.918h7.05c3.596,0,6.511-2.915,6.511-6.511v-2.718
		c0-3.596-2.915-6.511-6.511-6.511h-16.54c-3.596,0-6.511,2.915-6.511,6.511v2.718C223.875,378.93,226.79,381.845,230.386,381.845z"
		/>
	<path style="fill:#191919;" d="M185.62,381.845h6.359v8.918h4.128v-8.918h6.053c3.596,0,6.511-2.915,6.511-6.511v-2.718
		c0-3.596-2.915-6.511-6.511-6.511h-16.54c-3.596,0-6.511,2.915-6.511,6.511v2.718C179.109,378.93,182.024,381.845,185.62,381.845z"
		/>
	<path style="fill:#191919;" d="M376.97,353.382h6.206v9.738h4.129v-9.738h6.206c3.596,0,6.511-2.915,6.511-6.512v-2.718
		c0-3.596-2.915-6.511-6.511-6.511h-16.54c-3.596,0-6.511,2.915-6.511,6.511v2.718C370.458,350.467,373.374,353.382,376.97,353.382z
		"/>
	<path style="fill:#191919;" d="M332.204,353.382h7.203v9.738h4.129v-9.738h5.208c3.596,0,6.511-2.915,6.511-6.512v-2.718
		c0-3.596-2.915-6.511-6.511-6.511h-16.54c-3.596,0-6.511,2.915-6.511,6.511v2.718C325.693,350.467,328.608,353.382,332.204,353.382
		z"/>
	<path style="fill:#191919;" d="M287.438,353.382h5.898v9.738h4.128v-9.738h6.513c3.596,0,6.511-2.915,6.511-6.512v-2.718
		c0-3.596-2.915-6.511-6.511-6.511h-16.54c-3.596,0-6.511,2.915-6.511,6.511v2.718C280.926,350.467,283.842,353.382,287.438,353.382
		z"/>
	<path style="fill:#191919;" d="M242.672,353.382h4.593v9.738h4.129v-9.738h7.817c3.596,0,6.512-2.915,6.512-6.512v-2.718
		c0-3.596-2.915-6.511-6.512-6.511h-16.539c-3.596,0-6.511,2.915-6.511,6.511v2.718
		C236.161,350.467,239.076,353.382,242.672,353.382z"/>
	<path style="fill:#191919;" d="M197.906,353.382h5.591v9.738h4.128v-9.738h6.82c3.596,0,6.511-2.915,6.511-6.512v-2.718
		c0-3.596-2.915-6.511-6.511-6.511h-16.539c-3.596,0-6.512,2.915-6.512,6.511v2.718C191.395,350.467,194.31,353.382,197.906,353.382
		z"/>
	<path style="fill:#191919;" d="M153.14,353.382h6.589v9.738h4.129v-9.738h5.822c3.596,0,6.511-2.915,6.511-6.512v-2.718
		c0-3.596-2.915-6.511-6.511-6.511h-16.54c-3.596,0-6.511,2.915-6.511,6.511v2.718C146.629,350.467,149.544,353.382,153.14,353.382z
		"/>
	<path style="fill:#191919;" d="M148.212,390.763h4.129v-8.918h5.054c3.596,0,6.511-2.915,6.511-6.511v-2.718
		c0-3.596-2.915-6.511-6.511-6.511h-16.54c-3.596,0-6.511,2.915-6.511,6.511v2.718c0,3.596,2.915,6.511,6.511,6.511h7.357V390.763z"
		/>
	<polygon style="fill:#191919;" points="194.043,165.95 333.904,165.95 333.904,161.821 333.904,157.693 194.043,157.693 	"/>
	<polygon style="fill:#191919;" points="194.043,124.665 333.904,124.665 333.904,120.537 333.904,116.408 194.043,116.408 	"/>
	<polygon style="fill:#191919;" points="194.043,83.38 333.904,83.38 333.904,79.252 333.904,75.123 194.043,75.123 	"/>
	<path style="fill:#191919;" d="M451.557,223.749c12.947,0,23.443-10.495,23.443-23.442c0-12.947-10.496-23.443-23.443-23.443
		h-0.296v17.25h-19.78c-2.125-7.766-8.123-13.925-15.806-16.244l-23.001-48.044h-7.434V67.327c0-19.716-15.982-35.698-35.698-35.698
		H156.085h-6.961v0.749c-14.902,3.198-26.079,16.433-26.079,32.291v24.904h26.079v40.253h-11.697l-14.654,47.149
		c-1.558,0.146-3.069,0.445-4.523,0.881l-27.548-27.548c-6.552-6.552-15.263-10.161-24.529-10.161h-3.108
		c-16.287,0-30.558,11.564-33.936,27.496l-0.105,0.496L25,256.701l12.373,0.562l3.976-87.516
		c2.346-10.004,11.403-17.215,21.716-17.215h3.108c5.958,0,11.559,2.32,15.772,6.533l25.606,25.606
		c-2.396,2.669-4.183,5.883-5.157,9.443H84.857v-17.25h-0.296c-12.947,0-23.443,10.495-23.443,23.443
		c0,12.947,10.496,23.442,23.443,23.442h0.296v-17.25h17.536c2.719,9.937,11.789,17.25,22.589,17.25h24.142h80.431v9.301H98.619
		c-9.12,0-16.514,7.394-16.514,16.514v25.791c0,9.121,7.394,16.514,16.514,16.514c7.98,0,14.449,6.469,14.449,14.45v9.415
		c-10.488,4.339-17.89,14.672-17.89,26.709v97.029c0,15.935,12.964,28.899,28.899,28.899h291.059c15.936,0,28.9-12.964,28.9-28.899
		v-97.029c0-14.397-10.594-26.334-24.388-28.511v-7.613c0-7.98,6.469-14.45,14.45-14.45h6.498c9.12,0,16.514-7.393,16.514-16.514
		v-25.791c0-9.12-7.394-16.514-16.514-16.514H314.189v-9.301h71.05h23.652c10.8,0,19.869-7.313,22.589-17.25h19.78v17.25H451.557z
		 M272.62,233.05h-4.379l-0.003-0.001h4.384L272.62,233.05z M266.467,313.544v2.974c-6.67-0.288-13.259-1.284-19.667-2.974
		c-1.931-0.509-3.843-1.085-5.738-1.717l25.405-54.255V313.544z M294.201,313.544c-5.016,1.326-10.149,2.231-15.348,2.703v-2.703
		v-51.271l25.997,47.758C301.374,311.415,297.818,312.587,294.201,313.544z M246.069,233.049h18.205l-0.001,0.001h-18.204V233.049z
		 M223.91,293.925l33.32-50.221h2.056l-29.692,63.412c-0.908-0.445-1.828-0.867-2.723-1.342
		C222.579,303.492,221.223,297.974,223.91,293.925z M427.522,342.443v97.029c0,6.83-5.556,12.385-12.385,12.385H124.078
		c-6.83,0-12.385-5.556-12.385-12.385v-97.029c0-6.83,5.556-12.385,12.385-12.385h291.059
		C421.967,330.058,427.522,335.614,427.522,342.443z M322.206,290.198c2.986,3.836,2.049,9.441-2.058,12.041
		c-1.349,0.854-2.724,1.659-4.112,2.44l-33.191-60.975h3.16L322.206,290.198z M277.046,233.05l-0.001-0.001h20.631v0.001H277.046z
		 M376.983,206.499v8.993h-62.793v-8.993v-12.385v-6.833h-16.514c0,2.508-0.719,4.843-1.943,6.833
		c-2.3,3.739-6.418,6.241-11.13,6.241h-25.459c-4.712,0-8.83-2.502-11.13-6.241c-1.225-1.99-1.943-4.325-1.943-6.833h-16.514v6.833
		v12.385v8.993h-72.174v-8.993v-12.385v-17.25v-34.653v-12.385v-89.94h192.16c15.131,0,27.441,12.31,27.441,27.441v62.499v12.385
		v34.653v17.25V206.499z M401.461,176.864H385.24v-33.886L401.461,176.864z M147.828,81.316h-16.526V64.669
		c0-10.772,6.907-19.96,16.526-23.369V81.316z M146.546,142.211h2.578v34.653h-13.347L146.546,142.211z"/>
</g>
</svg>
